# xmcd CD database file
#
# Track frame offsets:
#	150
#	6210
#	18627
#	33600
#
# Disc length: 551 seconds
#
# Revision: 0
# Processed by: cddbd v1.5.1PL0 Copyright (c) Steve Scherf et al.
# Submitted via: CDex 1.51
#
DISCID=2a022504
DTITLE=Hiroya - Hot True
DYEAR=1900
DGENRE=Heavy Metal
TTITLE0=Hot True
TTITLE1=GRID
TTITLE2=Hot True (Vocal Ver)
TTITLE3=Hot Session
EXTD=
EXTT0=
EXTT1=
EXTT2=
EXTT3=
PLAYORDER=
